 <svg  version="1.0" xmlns="http://www.w3.org/2000/svg"  width="300.000000pt" height="300.000000pt" viewBox="0 0 300.000000 300.000000"  preserveAspectRatio="xMidYMid meet">  <g transform="translate(0.000000,300.000000) scale(0.100000,-0.100000)" fill="#07006b" stroke="none"> <path d="M2146 2368 c4 -7 3 -8 -4 -4 -12 7 -259 -68 -275 -84 -5 -4 24 -107 63 -229 40 -122 74 -220 76 -218 2 2 -3 28 -12 57 -11 38 -13 55 -5 58 14 5 15 49 1 57 -14 9 6 43 151 262 44 68 47 74 31 90 -13 13 -13 15 -2 11 15 -4 103 -243 97 -261 -1 -5 -14 25 -27 67 -21 67 -40 98 -40 64 0 -22 -41 -96 -56 -102 -20 -8 -11 21 28 87 16 27 28 56 26 65 -2 8 -23 -25 -48 -73 -29 -57 -53 -90 -68 -96 -17 -7 -22 -16 -20 -37 1 -17 -12 -54 -34 -94 -20 -36 -33 -70 -29 -77 5 -7 14 3 26 27 18 37 23 40 128 72 91 28 110 31 117 19 12 -19 10 -20 -112 -59 -93 -29 -109 -37 -119 -62 -6 -15 -15 -26 -19 -23 -19 12 19 -106 39 -123 13 -11 13 -13 1 -9 -8 2 -23 19 -32 38 -9 19 -17 28 -18 21 0 -19 28 -82 37 -82 26 0 312 103 316 114 6 14 -149 503 -166 524 -12 16 -61 17 -51 0z m-46 -91 c0 -19 -8 -25 -49 -36 -28 -7 -65 -20 -83 -29 l-33 -17 -1 26 c-1 24 5 29 75 52 94 32 91 32 91 4z m-30 -76 c0 -15 -13 -24 -56 -38 -31 -9 -60 -26 -66 -36 -12 -22 -5 -64 18 -112 9 -19 14 -39 12 -46 -2 -6 -17 25 -32 70 -28 80 -28 82 -9 99 10 9 17 25 15 35 -2 11 3 17 16 17 11 0 35 7 53 15 45 19 49 19 49 -4z m160 -55 c0 -2 3 -11 6 -19 4 -11 -4 -17 -28 -22 -53 -12 -108 -36 -102 -46 6 -10 -14 -50 -30 -61 -24 -16 -27 -6 -7 27 12 21 16 37 10 41 -26 16 0 39 66 60 76 24 85 26 85 20z m-210 -28 c0 -7 -7 -22 -16 -33 -13 -17 -16 -18 -24 -5 -15 23 -12 43 5 37 8 -4 17 -2 20 3 8 14 15 12 15 -2z m230 -36 c0 -13 -12 -23 -41 -31 -23 -7 -47 -15 -55 -18 -9 -3 -14 2 -14 14 0 14 13 24 48 35 62 21 62 21 62 0z m79 -147 c11 -36 18 -71 15 -79 -6 -16 -60 -40 -114 -50 -24 -5 -30 -4 -21 2 11 8 10 15 -7 39 l-21 30 23 50 c21 45 50 72 64 58 6 -6 -17 -113 -30 -138 -14 -27 -5 -30 41 -16 60 18 64 27 41 94 -20 59 -24 75 -15 75 2 0 13 -29 24 -65z m-28 -46 c7 -13 3 -18 -15 -21 -22 -4 -23 -3 -15 26 5 17 9 33 10 36 0 3 3 -2 6 -10 3 -8 9 -22 14 -31z m-133 10 c2 -10 -15 -20 -50 -31 -29 -9 -56 -14 -60 -11 -20 12 -4 31 40 45 53 18 66 17 70 -3z m16 -45 c8 -20 11 -18 -48 -38 -62 -20 -66 -20 -66 2 0 13 14 23 48 34 61 21 59 21 66 2z m-34 -74 c-25 -10 -52 -19 -60 -19 -19 0 70 37 90 37 8 1 -5 -8 -30 -18z"/> <path d="M1630 2220 c0 -5 9 -10 20 -10 11 0 23 0 27 -1 4 0 9 4 11 10 2 6 -10 11 -27 11 -17 0 -31 -4 -31 -10z"/> <path d="M1796 2133 c65 -77 85 -143 58 -195 -9 -18 -22 -36 -28 -40 -6 -4 -90 -8 -186 -8 -143 0 -180 3 -198 16 -12 8 -20 19 -17 24 3 4 -4 10 -15 13 -25 6 -25 2 1 -34 l20 -29 203 0 202 0 23 31 c20 27 23 39 17 82 -8 71 -53 154 -96 181 -34 21 -34 20 16 -41z"/> <path d="M1535 2126 c-16 -7 -37 -22 -46 -32 -19 -23 -39 -78 -39 -110 l0 -24 186 0 186 0 -7 43 c-16 99 -66 137 -180 137 -38 -1 -83 -7 -100 -14z m163 -22 c18 -5 22 -12 18 -29 -6 -24 20 -69 35 -60 5 4 9 1 9 -6 0 -8 -11 -10 -34 -6 -25 4 -36 1 -40 -9 -7 -18 -70 -18 -85 0 -8 10 -23 13 -47 9 -39 -6 -42 -1 -14 27 14 14 18 28 14 44 -4 18 -1 25 13 29 28 7 105 7 131 1z m-160 -47 c2 -10 -3 -17 -12 -17 -18 0 -29 16 -21 31 9 14 29 6 33 -14z m230 0 c2 -10 -3 -17 -12 -17 -18 0 -29 16 -21 31 9 14 29 6 33 -14z"/> <path d="M1613 2005 c5 -13 59 -13 64 1 2 6 -11 10 -32 10 -19 -1 -33 -5 -32 -11z"/> <path d="M790 1886 l-64 -11 -39 -184 -40 -185 23 -18 c18 -15 33 -17 69 -13 104 13 111 15 111 34 0 11 9 21 21 24 19 5 24 30 6 28 -4 -1 -20 -1 -37 -1 -25 0 -30 -4 -30 -24 0 -21 -5 -24 -61 -30 -34 -4 -64 -5 -67 -2 -10 11 60 320 77 337 9 10 41 19 77 23 l61 7 15 -33 c41 -86 62 -128 98 -193 54 -97 54 -101 -25 -110 -35 -3 -70 -3 -77 1 -7 4 -4 -3 7 -14 18 -19 27 -21 87 -15 36 3 72 9 80 14 10 6 -6 47 -72 179 -80 160 -109 202 -142 199 -7 -1 -42 -6 -78 -13z"/> <path d="M1286 1859 c-2 -8 -9 -84 -16 -169 -7 -85 -16 -160 -21 -166 -6 -7 -28 -8 -70 -2 -34 4 -64 6 -66 4 -13 -13 50 -35 107 -38 l65 -3 17 180 c14 154 15 182 3 194 -12 13 -15 13 -19 0z"/> <path d="M1384 1851 c-41 -25 -55 -48 -18 -28 39 21 71 46 59 47 -5 0 -24 -9 -41 -19z"/> <path d="M1800 1853 c17 -7 49 -44 50 -57 0 -5 8 -18 17 -28 28 -31 19 -110 -22 -190 -19 -37 -30 -68 -25 -68 15 0 69 122 76 172 5 41 2 53 -31 112 -28 51 -42 66 -58 65 -15 0 -17 -2 -7 -6z"/> <path d="M882 1772 c13 -47 45 -92 64 -92 14 0 14 2 1 15 -8 8 -23 34 -33 59 -24 58 -46 71 -32 18z"/> <path d="M1927 1796 c-9 -7 -17 -18 -17 -24 0 -23 18 -20 43 6 22 23 24 28 9 29 -9 1 -25 -4 -35 -11z"/> <path d="M1238 1748 c-5 -48 -4 -53 11 -43 13 8 15 85 2 85 -5 0 -11 -19 -13 -42z"/> <path d="M821 1739 c-1 -15 -4 -40 -7 -57 -6 -28 -4 -30 15 -25 24 6 25 23 6 73 -13 33 -14 33 -14 9z"/> <path d="M1520 1719 c63 -4 153 -10 200 -13 76 -6 83 -5 65 8 -16 12 -55 15 -200 14 l-180 -1 115 -8z"/> <path d="M1690 1488 l-45 -19 45 4 c25 3 61 11 80 20 l35 15 -35 -1 c-19 0 -55 -9 -80 -19z"/> <path d="M1578 1452 c-10 -2 -18 -8 -18 -13 0 -5 -6 -9 -14 -9 -7 0 -19 -7 -26 -15 -9 -11 -16 -13 -24 -5 -13 13 -43 13 -51 -1 -10 -16 -1 -20 55 -28 l52 -6 4 -120 c5 -161 6 -162 56 -176 52 -14 73 -3 73 37 0 20 -7 32 -22 39 -22 9 -23 15 -23 136 l0 127 33 -2 c42 -1 44 -13 46 -193 l1 -142 36 -7 c20 -4 67 -4 106 -2 61 5 74 9 99 35 37 37 47 90 25 133 -11 23 -13 37 -6 50 22 41 1 106 -42 128 -13 7 -82 14 -158 16 -74 3 -146 9 -160 13 -14 5 -33 8 -42 5z m221 -82 c-42 -36 -45 -36 -51 -5 -5 26 2 30 56 32 l29 2 -34 -29z m131 5 c21 -25 1 -31 -22 -7 -18 18 -19 22 -6 22 8 0 21 -7 28 -15z m-32 -38 c15 -17 3 -32 -31 -41 -24 -6 -28 -11 -25 -34 2 -20 9 -28 28 -30 34 -5 52 -29 39 -53 -7 -15 -21 -19 -59 -19 l-50 0 0 95 0 95 44 0 c24 0 48 -6 54 -13z m46 -76 l6 -44 -25 23 c-23 22 -23 23 -7 45 9 13 18 22 18 22 1 -1 5 -22 8 -46z m-149 -149 c-24 -5 -49 22 -41 45 7 16 10 15 33 -12 24 -27 24 -30 8 -33z"/> <path d="M746 1426 c-156 -58 -163 -268 -11 -337 51 -24 99 -23 153 1 45 20 53 41 28 75 -13 18 -18 18 -48 7 -58 -20 -96 -15 -129 17 -82 83 28 209 127 145 23 -16 26 -15 44 1 32 29 26 60 -16 80 -51 24 -102 28 -148 11z"/> <path d="M2367 1413 c-4 -3 -7 -24 -7 -45 0 -31 -3 -38 -20 -38 -17 0 -20 -7 -20 -40 0 -33 3 -40 20 -40 17 0 20 -7 20 -52 0 -73 16 -100 69 -117 53 -17 76 -6 76 35 0 23 -5 30 -23 32 -25 4 -28 8 -35 64 -5 36 -5 37 31 40 35 3 37 5 37 38 0 33 -2 35 -36 38 -33 3 -35 5 -31 33 2 16 -1 36 -8 44 -13 15 -61 21 -73 8z m66 -98 c18 -25 18 -26 -3 -56 l-22 -30 -19 22 c-22 26 -24 42 -7 69 17 26 29 25 51 -5z"/> <path d="M1662 1393 c-18 -7 -4 -23 19 -23 12 0 19 5 17 12 -5 14 -18 18 -36 11z"/> <path d="M1031 1323 c-122 -62 -76 -253 61 -253 39 0 90 29 113 64 21 32 21 110 1 141 -37 57 -116 78 -175 48z m97 -85 c7 -7 12 -21 12 -33 0 -29 -19 -45 -52 -45 -36 0 -56 36 -39 69 13 23 59 29 79 9z"/> <path d="M1319 1317 c-75 -50 -86 -137 -26 -203 39 -43 94 -54 150 -31 100 42 103 194 4 240 -48 23 -88 21 -128 -6z m111 -87 c15 -27 5 -55 -24 -68 -45 -20 -89 41 -54 76 20 20 66 15 78 -8z"/> <path d="M2104 1326 c-126 -57 -81 -256 58 -256 40 0 90 29 114 65 22 34 22 106 1 139 -37 55 -114 79 -173 52z m94 -88 c7 -7 12 -21 12 -33 0 -28 -19 -45 -50 -45 -31 0 -50 17 -50 45 0 12 5 26 12 33 15 15 61 15 76 0z"/> <path d="M2594 1326 c-33 -15 -44 -33 -44 -73 0 -30 50 -83 78 -83 27 0 52 -10 52 -21 0 -13 -38 -11 -78 3 -30 11 -35 11 -48 -7 -22 -30 -17 -45 23 -62 56 -23 130 -13 160 21 46 54 21 107 -63 132 -67 19 -63 39 7 30 41 -6 49 -4 58 13 16 28 15 31 -24 47 -42 17 -80 17 -121 0z"/> </g> </svg> 